<?xml version="1.0" encoding="UTF-8" standalone="no"?>
<!-- Created with Inkscape (http://www.inkscape.org/) -->

<svg
   xmlns:dc="http://purl.org/dc/elements/1.1/"
   xmlns:cc="http://creativecommons.org/ns#"
   xmlns:rdf="http://www.w3.org/1999/02/22-rdf-syntax-ns#"
   xmlns:svg="http://www.w3.org/2000/svg"
   xmlns="http://www.w3.org/2000/svg"
   xmlns:sodipodi="http://sodipodi.sourceforge.net/DTD/sodipodi-0.dtd"
   xmlns:inkscape="http://www.inkscape.org/namespaces/inkscape"
   width="66.155571mm"
   height="10.288892mm"
   viewBox="0 0 66.155571 10.288892"
   version="1.1"
   id="svg8"
   inkscape:version="0.92.0 r15299"
   sodipodi:docname="LOGO.svg">
  <defs
     id="defs2" />
  <sodipodi:namedview
     id="base"
     pagecolor="#ffffff"
     bordercolor="#666666"
     borderopacity="1.0"
     inkscape:pageopacity="0.0"
     inkscape:pageshadow="2"
     inkscape:zoom="0.70710678"
     inkscape:cx="388.49073"
     inkscape:cy="-97.055754"
     inkscape:document-units="mm"
     inkscape:current-layer="text4550"
     showgrid="false"
     showborder="true"
     inkscape:window-width="1920"
     inkscape:window-height="1017"
     inkscape:window-x="1358"
     inkscape:window-y="-8"
     inkscape:window-maximized="1"
     showguides="true"
     inkscape:guide-bbox="true"
     fit-margin-top="0"
     fit-margin-left="0"
     fit-margin-right="0"
     fit-margin-bottom="0" />
  <metadata
     id="metadata5">
    <rdf:RDF>
      <cc:Work
         rdf:about="">
        <dc:format>image/svg+xml</dc:format>
        <dc:type
           rdf:resource="http://purl.org/dc/dcmitype/StillImage" />
        <dc:title></dc:title>
      </cc:Work>
    </rdf:RDF>
  </metadata>
  <g
     inkscape:label="Layer 1"
     inkscape:groupmode="layer"
     id="layer1"
     transform="translate(-59.845312,-92.735647)">
    <g
       id="g71"
       transform="matrix(0.22913589,0.13229166,-0.13229166,0.22913589,75.749659,35.141282)"
       style="fill:#000000;fill-opacity:1">
      <g
         id="g14"
         style="fill:#000000;fill-opacity:1">
        <g
           id="g12"
           style="fill:#000000;fill-opacity:1" />
      </g>
      <g
         id="g16"
         style="fill:#000000;fill-opacity:1" />
      <g
         id="g18"
         style="fill:#000000;fill-opacity:1" />
      <g
         id="g20"
         style="fill:#000000;fill-opacity:1" />
      <g
         id="g22"
         style="fill:#000000;fill-opacity:1" />
      <g
         id="g24"
         style="fill:#000000;fill-opacity:1" />
      <g
         id="g26"
         style="fill:#000000;fill-opacity:1" />
      <g
         id="g28"
         style="fill:#000000;fill-opacity:1" />
      <g
         id="g30"
         style="fill:#000000;fill-opacity:1" />
      <g
         id="g32"
         style="fill:#000000;fill-opacity:1" />
      <g
         id="g34"
         style="fill:#000000;fill-opacity:1" />
      <g
         id="g36"
         style="fill:#000000;fill-opacity:1" />
      <g
         id="g38"
         style="fill:#000000;fill-opacity:1" />
      <g
         id="g40"
         style="fill:#000000;fill-opacity:1" />
      <g
         id="g42"
         style="fill:#000000;fill-opacity:1" />
      <g
         id="g44"
         style="fill:#000000;fill-opacity:1" />
    </g>
    <g
       aria-label="STAMPER"
       style="font-style:normal;font-variant:normal;font-weight:normal;font-stretch:normal;font-size:181.02151489px;line-height:47.14122009px;font-family:Bahnschrift;-inkscape-font-specification:'Bahnschrift, Normal';font-variant-ligatures:normal;font-variant-caps:normal;font-variant-numeric:normal;font-feature-settings:normal;text-align:start;letter-spacing:0px;word-spacing:0px;writing-mode:lr-tb;text-anchor:start;fill:#000000;fill-opacity:1;stroke:none;stroke-width:1.88564885"
       id="text4550">
      <path
         id="path4612"
         style="font-style:normal;font-variant:normal;font-weight:normal;font-stretch:normal;font-size:181.02151489px;font-family:Bahnschrift;-inkscape-font-specification:'Bahnschrift, Normal';font-variant-ligatures:normal;font-variant-caps:normal;font-variant-numeric:normal;font-feature-settings:normal;text-align:start;writing-mode:lr-tb;text-anchor:start;stroke-width:0.13614182"
         d="m 119.80432,97.350637 h 3.16528 q 0.37014,0 0.65731,-0.17869 0.28717,-0.17868 0.44034,-0.50415 0.15954,-0.33184 0.15954,-0.75941 v 0 q 0,-0.42757 -0.15954,-0.75303 -0.15317,-0.33185 -0.44034,-0.51053 -0.28079,-0.17869 -0.65731,-0.17869 h -3.16528 v -1.23803 h 3.11423 q 0.80409,0 1.41034,0.33185 0.61264,0.33184 0.94448,0.94448 0.33823,0.60625 0.33823,1.40395 v 0 q 0,0.7977 -0.33823,1.41034 -0.33823,0.60625 -0.95086,0.93809 -0.60626,0.33185 -1.40396,0.33185 h -3.11423 z m -0.56796,-4.12253 h 1.30185 v 9.285263 h -1.30185 z m 3.09509,5.07339 1.29546,-0.29356 2.37397,4.505433 h -1.54436 z m -10.9062,-5.06701 h 1.30185 v 9.278883 h -1.30185 z m 0.63178,8.040843 h 5.32866 v 1.23804 h -5.32866 z m 0,-3.988513 h 4.62668 v 1.23804 h -4.62668 z m 0,-4.05233 h 5.32866 v 1.23804 h -5.32866 z m -8.10465,4.44161 h 2.96745 q 0.42119,0 0.74027,-0.19783 0.31908,-0.19783 0.49138,-0.56159 0.17869,-0.36375 0.17869,-0.83599 v 0 q 0,-0.47862 -0.17869,-0.84237 -0.1723,-0.36375 -0.49138,-0.56158 -0.31908,-0.20421 -0.74027,-0.20421 h -2.96745 v -1.23804 h 2.92278 q 0.82961,0 1.46139,0.35737 0.63178,0.35099 0.97639,0.99553 0.35099,0.64455 0.35099,1.4933 v 0 q 0,0.84876 -0.35099,1.49331 -0.34461,0.63815 -0.97639,0.98915 -0.63178,0.35099 -1.46139,0.35099 h -2.92278 z m -0.67007,-4.44161 h 1.30185 v 9.278883 h -1.30185 z m -3.516276,0 h 1.218886 v 9.278883 h -1.269936 v -6.949593 l 0.0638,0.40842 -2.28462,5.252083 h -0.90618 l -2.28463,-5.124443 0.0638,-0.53606 v 6.949593 h -1.26994 v -9.278883 h 1.21888 l 2.72495,6.12635 z m -12.61646,0 h 1.1104 l 3.42055,9.278883 h -1.40396 l -2.57179,-7.485643 -2.57179,7.485643 h -1.40396 z m -1.84429,6.00511 h 4.88194 v 1.238033 h -4.88194 z m -5.51372,-5.2457 h 1.30185 v 8.519473 h -1.30185 z m -2.62285,-0.75941 h 6.54754 v 1.23804 h -6.54754 z m -3.97575,9.374603 q -0.67007,0 -1.26994,-0.12763 -0.59987,-0.12763 -1.12316,-0.3829 -0.51692,-0.25526 -0.97001,-0.63816 v 0 l 0.81046,-0.99553 v 0 q 0.52968,0.45947 1.16784,0.68921 0.63816,0.22974 1.38481,0.22974 1.0083,0 1.5635,-0.37013 0.5552,-0.37652 0.5552,-1.059363 v -0.006 q 0,-0.48501 -0.25527,-0.76579 -0.24887,-0.28718 -0.65092,-0.42119 -0.39566,-0.1404 -1.02744,-0.25527 -0.0192,-0.006 -0.0446,-0.006 -0.0192,0 -0.0383,-0.006 l -0.0957,-0.0192 q -0.93172,-0.15954 -1.51883,-0.35737 -0.58073,-0.20421 -0.99553,-0.73389 -0.41481,-0.53606 -0.41481,-1.51882 v -0.006 q 0,-0.86152 0.3829,-1.46777 0.38927,-0.61264 1.12954,-0.93172 0.74027,-0.31908 1.78048,-0.31908 0.49776,0 0.97639,0.10849 0.485,0.10849 0.95086,0.32546 0.47224,0.21059 0.92533,0.53606 v 0 l -0.74027,1.03382 v 0 q -0.52967,-0.38928 -1.05934,-0.58073 -0.5233,-0.19783 -1.05297,-0.19783 -0.95086,0 -1.48054,0.3829 -0.52329,0.37652 -0.52329,1.07211 v 0.006 q 0,0.47861 0.26803,0.75303 0.27441,0.2744 0.67645,0.40842 0.40842,0.12763 1.12955,0.26802 0.0255,0.006 0.0446,0.0128 0.0255,0 0.051,0.006 0.0319,0.006 0.0702,0.0128 0.0383,0.006 0.0702,0.0128 0.84238,0.1723 1.40396,0.40842 0.56796,0.23613 0.94448,0.7658 0.3829,0.52329 0.3829,1.43587 v 0.0128 q 0,0.848753 -0.40205,1.455013 -0.40204,0.59987 -1.16783,0.91895 -0.75942,0.3127 -1.83791,0.3127 z m -6.0926,-2.694053 -1.24082,-0.71639 0.14328,-0.24816 c 0.17906,-0.31014 0.14214,-0.68658 -0.0636,-0.95436 0.41951,-0.50959 0.87517,-0.95066 1.85203,-1.52173 0.29908,-0.17485 0.54918,-0.42665 0.72329,-0.72821 0.55471,-0.96078 0.22676,-2.19426 -0.75105,-2.74913 -0.86797,-0.492553 -1.91109,-0.25399 -2.49471,0.42227 -0.3611,0.4184 -0.5354,0.94663 -0.49073,1.48743 0.0612,0.74174 -0.1402,1.49905 -0.39862,2.18883 -0.33475,-0.0443 -0.67922,0.11198 -0.85828,0.42211 l -0.14328,0.24817 -1.24082,-0.71639 c -0.68418,-0.39501 -1.56219,-0.15975 -1.9572,0.52444 l -0.29611,0.51287 c -0.0791,0.13705 -0.0322,0.31232 0.10488,0.39145 l 0.24817,0.14328 -0.14328,0.24816 c -0.23701,0.41051 -0.0958,0.93731 0.31466,1.174323 l 4.96327,2.86555 c 0.41051,0.237 0.93733,0.0958 1.17433,-0.31465 l 0.14328,-0.24817 0.24817,0.14328 c 0.13704,0.0791 0.31231,0.0322 0.39144,-0.10489 l 0.29611,-0.51287 c 0.39502,-0.68418 0.15975,-1.56219 -0.52443,-1.957213 z m -1.75112,-5.0554 c -0.0319,-0.38631 0.0936,-0.76483 0.35344,-1.06586 0.40712,-0.47172 1.16577,-0.6621 1.80776,-0.28194 0.67593,0.40026 0.8982,1.27161 0.5078,1.94781 -0.12442,0.21549 -0.30291,0.39529 -0.5162,0.51998 -1.04325,0.60987 -1.54168,1.08914 -2.02414,1.67515 l -0.5722,-0.33036 c 0.29473,-0.78648 0.51338,-1.61862 0.44354,-2.46478 z m 0.15725,3.80429 -0.14328,0.24817 -1.48898,-0.85967 0.14328,-0.24817 c 0.079,-0.13683 0.25459,-0.18389 0.39144,-0.10489 l 0.99265,0.57311 c 0.13684,0.079 0.18389,0.25462 0.10489,0.39145 z m 0.54298,3.644423 c -0.079,0.13683 -0.25459,0.1839 -0.39144,0.10489 l -4.96327,-2.865553 c -0.13683,-0.079 -0.1839,-0.2546 -0.10489,-0.39144 l 0.14328,-0.24817 5.4596,3.152103 z m 0.92618,-0.45794 c -0.28617,-0.16522 -5.92728,-3.422113 -6.45226,-3.725223 l 0.15283,-0.2647 c 0.237,-0.41051 0.7638,-0.55167 1.17431,-0.31466 0.12143,0.0701 4.39097,2.535133 4.96327,2.865553 0.41051,0.237 0.55168,0.76381 0.31468,1.17432 z"
         inkscape:connector-curvature="0" />
    </g>
  </g>
</svg>
