<?xml version="1.0" encoding="UTF-8" standalone="no"?>
<!-- Created with Inkscape (http://www.inkscape.org/) -->

<svg
   xmlns:dc="http://purl.org/dc/elements/1.1/"
   xmlns:cc="http://creativecommons.org/ns#"
   xmlns:rdf="http://www.w3.org/1999/02/22-rdf-syntax-ns#"
   xmlns:svg="http://www.w3.org/2000/svg"
   xmlns="http://www.w3.org/2000/svg"
   xmlns:sodipodi="http://sodipodi.sourceforge.net/DTD/sodipodi-0.dtd"
   xmlns:inkscape="http://www.inkscape.org/namespaces/inkscape"
   width="210mm"
   height="297mm"
   viewBox="0 0 210 297"
   version="1.1"
   id="svg8"
   inkscape:version="0.92.0 r15299"
   sodipodi:docname="stamp-rotated.svg">
  <defs
     id="defs2" />
  <sodipodi:namedview
     id="base"
     pagecolor="#ffffff"
     bordercolor="#666666"
     borderopacity="1.0"
     inkscape:pageopacity="0.0"
     inkscape:pageshadow="2"
     inkscape:zoom="0.35"
     inkscape:cx="-75.714286"
     inkscape:cy="560"
     inkscape:document-units="mm"
     inkscape:current-layer="layer1"
     showgrid="false"
     showborder="false"
     inkscape:window-width="1366"
     inkscape:window-height="705"
     inkscape:window-x="-8"
     inkscape:window-y="-8"
     inkscape:window-maximized="1" />
  <metadata
     id="metadata5">
    <rdf:RDF>
      <cc:Work
         rdf:about="">
        <dc:format>image/svg+xml</dc:format>
        <dc:type
           rdf:resource="http://purl.org/dc/dcmitype/StillImage" />
        <dc:title></dc:title>
      </cc:Work>
    </rdf:RDF>
  </metadata>
  <g
     inkscape:label="Layer 1"
     inkscape:groupmode="layer"
     id="layer1">
    <g
       id="g71"
       transform="matrix(0.22913589,0.13229166,-0.13229166,0.22913589,75.749659,35.141282)"
       style="fill:#cccccc">
      <g
         id="g14"
         style="fill:#cccccc">
        <g
           id="g12"
           style="fill:#cccccc">
          <path
             id="path10"
             d="m 406.008,330.99 h -75.004 v -15.001 c 0,-18.747 -11.527,-34.847 -27.862,-41.602 5.68,-34.083 14.793,-66.006 44.132,-117.464 8.982,-15.755 13.73,-33.717 13.73,-51.945 0,-58.077 -47.153,-105.413 -106.006,-104.975 -52.242,0.389 -93.288,38.507 -102.046,84.441 -5.419,28.42 0.505,56.93 16.685,80.278 22.19,32.025 32.881,71.63 39.22,109.665 -16.335,6.755 -27.862,22.855 -27.862,41.602 v 15.001 h -75.004 c -41.357,0 -75.004,33.647 -75.004,75.004 v 31.002 c 0,8.284 6.716,15.001 15.001,15.001 h 15.001 v 15.001 c 0,24.814 20.188,45.002 45.002,45.002 h 300.016 c 24.814,0 45.003,-20.188 45.003,-45.002 v -15.001 h 15.001 c 8.284,0 15.001,-6.716 15.001,-15.001 v -31.002 c 0,-41.357 -33.647,-75.004 -75.004,-75.004 z M 194.298,147.636 c -11.557,-16.679 -15.774,-37.125 -11.875,-57.572 6.11,-32.042 35.521,-60.53 74.576,-60.099 41.12,0.454 74.004,34.139 74.004,75.013 0,13.026 -3.386,25.849 -9.792,37.085 -31.333,54.955 -41.385,89.729 -47.919,128.924 h -34.588 c -7.224,-43.37 -19.092,-86.818 -44.406,-123.351 z m 106.704,168.353 v 15.001 h -90.005 v -15.001 c 0,-8.271 6.729,-15.001 15.001,-15.001 h 60.003 c 8.272,10e-4 15.001,6.73 15.001,15.001 z m 120.007,151.009 c 0,8.271 -6.729,15.001 -15.001,15.001 H 105.992 c -8.271,0 -15.001,-6.729 -15.001,-15.001 v -15.001 h 330.018 z m 30.002,-45.003 c -17.298,0 -358.287,0 -390.021,0 v -16.001 c 0,-24.814 20.188,-45.002 45.002,-45.002 7.34,0 265.422,0 300.016,0 24.814,0 45.003,20.188 45.003,45.002 z"
             inkscape:connector-curvature="0"
             style="fill:#cccccc" />
        </g>
      </g>
      <g
         id="g16"
         style="fill:#cccccc" />
      <g
         id="g18"
         style="fill:#cccccc" />
      <g
         id="g20"
         style="fill:#cccccc" />
      <g
         id="g22"
         style="fill:#cccccc" />
      <g
         id="g24"
         style="fill:#cccccc" />
      <g
         id="g26"
         style="fill:#cccccc" />
      <g
         id="g28"
         style="fill:#cccccc" />
      <g
         id="g30"
         style="fill:#cccccc" />
      <g
         id="g32"
         style="fill:#cccccc" />
      <g
         id="g34"
         style="fill:#cccccc" />
      <g
         id="g36"
         style="fill:#cccccc" />
      <g
         id="g38"
         style="fill:#cccccc" />
      <g
         id="g40"
         style="fill:#cccccc" />
      <g
         id="g42"
         style="fill:#cccccc" />
      <g
         id="g44"
         style="fill:#cccccc" />
    </g>
  </g>
</svg>
